<?xml version="1.0" encoding="UTF-8"?>
<!DOCTYPE svg PUBLIC "-//W3C//DTD SVG 1.1//EN" "http://www.w3.org/Graphics/SVG/1.1/DTD/svg11.dtd">
<svg xmlns="http://www.w3.org/2000/svg" version="1.1" width="300px" height="389px" style="shape-rendering:geometricPrecision; text-rendering:geometricPrecision; image-rendering:optimizeQuality; fill-rule:evenodd; clip-rule:evenodd" xmlns:xlink="http://www.w3.org/1999/xlink">
<g><path style="opacity:0.967" fill="#000000" d="M 205.5,146.5 C 205.575,149.206 205.908,151.873 206.5,154.5C 207.833,158.5 207.833,162.5 206.5,166.5C 204.869,174.094 201.869,181.094 197.5,187.5C 190.667,201.151 184.5,215.151 179,229.5C 175.339,236.644 171.506,243.644 167.5,250.5C 156.839,244.168 145.839,238.334 134.5,233C 137.57,229.99 136.903,228.157 132.5,227.5C 139.004,219.167 144.504,210.167 149,200.5C 152.951,197.16 154.618,192.827 154,187.5C 158.122,178.259 161.956,168.926 165.5,159.5C 167.447,154.324 168.781,148.99 169.5,143.5C 168.436,138.555 167.603,133.555 167,128.5C 164.599,127.398 162.099,127.231 159.5,128C 152.724,130.554 146.391,133.887 140.5,138C 127.412,149.759 113.745,160.759 99.5,171C 103.455,175.463 103.455,179.963 99.5,184.5C 100.531,185.7 101.365,187.034 102,188.5C 102.333,192.167 102.667,195.833 103,199.5C 107.98,193.84 109.147,194.34 106.5,201C 108.106,203.992 107.772,206.659 105.5,209C 106.705,210.376 108.038,211.542 109.5,212.5C 110.158,215.156 110.825,217.822 111.5,220.5C 109.836,225.315 108.502,230.148 107.5,235C 107.264,239.29 108.431,243.123 111,246.5C 114.222,249.388 117.722,251.888 121.5,254C 131.94,258.187 141.94,263.02 151.5,268.5C 143.14,274.597 133.974,279.264 124,282.5C 122.163,280.757 120.496,278.757 119,276.5C 116.724,279.888 113.558,281.554 109.5,281.5C 104.32,280.826 99.4863,279.159 95,276.5C 93.6912,278.976 91.8579,280.976 89.5,282.5C 89.0894,281.738 88.9227,280.738 89,279.5C 86.828,278.415 84.828,277.081 83,275.5C 83.4075,272.839 84.2408,270.173 85.5,267.5C 85.278,265.945 84.6113,264.611 83.5,263.5C 84.9798,262.887 86.3131,262.554 87.5,262.5C 86.7695,259.891 86.2695,257.224 86,254.5C 77.1806,243.705 72.514,231.372 72,217.5C 72.1968,215.139 73.3635,213.472 75.5,212.5C 73.2501,210.886 71.2501,209.053 69.5,207C 71.4146,200.282 71.9146,193.449 71,186.5C 68.6424,172.736 65.8091,159.069 62.5,145.5C 61.6564,140.2 61.3231,134.866 61.5,129.5C 58.383,129.358 55.883,128.024 54,125.5C 47.9424,117.922 47.1091,109.922 51.5,101.5C 50.1159,98.6663 49.4492,95.6663 49.5,92.5C 50.1667,85.8333 50.8333,79.1667 51.5,72.5C 51.633,65.0624 49.2997,58.5624 44.5,53C 46.5352,49.3008 49.5352,46.6341 53.5,45C 60.5284,44.0417 67.5284,43.0417 74.5,42C 87.3597,27.8162 103.193,20.3162 122,19.5C 122.492,18.451 122.326,17.451 121.5,16.5C 142.259,12.6239 158.425,19.6239 170,37.5C 175.09,48.0551 173.924,57.8884 166.5,67C 167.687,68.0195 168.687,69.1861 169.5,70.5C 165.263,78.8941 160.429,86.8941 155,94.5C 152.61,99.0025 150.61,103.669 149,108.5C 146.594,109.565 144.427,110.898 142.5,112.5C 143,112.833 143.5,113.167 144,113.5C 154.423,111.625 164.923,111.125 175.5,112C 195.149,115.462 205.149,126.962 205.5,146.5 Z M 126.5,37.5 C 127.833,37.5 129.167,37.5 130.5,37.5C 130.252,46.4931 128.419,55.1597 125,63.5C 115.114,85.9385 105.781,108.605 97,131.5C 86.7375,107.681 87.0709,84.014 98,60.5C 104.57,49.1404 114.07,41.4737 126.5,37.5 Z M 165.5,159.5 C 139.703,169.63 121.036,187.297 109.5,212.5C 108.038,211.542 106.705,210.376 105.5,209C 107.772,206.659 108.106,203.992 106.5,201C 109.147,194.34 107.98,193.84 103,199.5C 102.667,195.833 102.333,192.167 102,188.5C 101.365,187.034 100.531,185.7 99.5,184.5C 103.455,179.963 103.455,175.463 99.5,171C 113.745,160.759 127.412,149.759 140.5,138C 146.391,133.887 152.724,130.554 159.5,128C 162.099,127.231 164.599,127.398 167,128.5C 167.603,133.555 168.436,138.555 169.5,143.5C 168.781,148.99 167.447,154.324 165.5,159.5 Z M 86.5,239.5 C 89.0606,239.447 91.0606,240.447 92.5,242.5C 90.674,242.92 88.674,242.92 86.5,242.5C 86.5,241.5 86.5,240.5 86.5,239.5 Z M 133.5,267.5 C 135.901,268.049 138.235,268.882 140.5,270C 139.833,270.667 139.167,271.333 138.5,272C 135.429,272.147 132.596,272.98 130,274.5C 130.066,271.7 131.233,269.367 133.5,267.5 Z"/></g>
<g><path style="opacity:0.963" fill="#fefefe" d="M 197.5,187.5 C 201.869,181.094 204.869,174.094 206.5,166.5C 207.117,166.389 207.617,166.056 208,165.5C 208.667,162.167 208.667,158.833 208,155.5C 207.617,154.944 207.117,154.611 206.5,154.5C 205.908,151.873 205.575,149.206 205.5,146.5C 208.91,146.218 212.243,145.551 215.5,144.5C 218.808,145.395 222.141,146.229 225.5,147C 245.606,159.063 263.106,174.563 278,193.5C 289.277,213.558 284.777,229.058 264.5,240C 253.904,246.381 242.738,251.548 231,255.5C 224.463,255.109 219.629,252.109 216.5,246.5C 218.316,244.183 220.316,242.016 222.5,240C 232.476,234.697 241.309,227.863 249,219.5C 257.219,200.44 251.385,188.274 231.5,183C 219.761,181.177 208.427,182.677 197.5,187.5 Z"/></g>
<g><path style="opacity:0.966" fill="#fefefe" d="M 165.5,159.5 C 161.956,168.926 158.122,178.259 154,187.5C 154.618,192.827 152.951,197.16 149,200.5C 144.504,210.167 139.004,219.167 132.5,227.5C 136.903,228.157 137.57,229.99 134.5,233C 145.839,238.334 156.839,244.168 167.5,250.5C 199.154,271.453 206.988,299.119 191,333.5C 178.208,344.315 163.708,352.149 147.5,357C 126.995,363.529 105.995,367.029 84.5,367.5C 76.3538,367.425 68.3538,366.425 60.5,364.5C 60.5,363.167 60.5,361.833 60.5,360.5C 58.0607,359.947 55.7273,359.947 53.5,360.5C 52.5197,359.019 51.353,357.685 50,356.5C 48.927,357.28 47.7604,357.113 46.5,356C 44.3834,354.269 42.8834,352.102 42,349.5C 35.8996,346.726 31.8996,342.059 30,335.5C 25.9659,332.978 22.2992,329.978 19,326.5C 18.5172,325.552 18.3505,324.552 18.5,323.5C 24.7839,323.873 25.1172,322.873 19.5,320.5C 17.7157,321.156 16.049,321.656 14.5,322C 13.2054,319.242 11.5388,316.742 9.5,314.5C 13.3299,311.617 17.6632,309.784 22.5,309C 22.8333,308.667 23.1667,308.333 23.5,308C 22.8095,306.933 22.3095,305.766 22,304.5C 18.7862,309.339 14.6196,310.506 9.5,308C 12.808,303.892 17.1413,301.892 22.5,302C 27.2335,295.465 33.5668,292.465 41.5,293C 38.1611,297.156 35.4944,301.656 33.5,306.5C 36.5409,316.375 42.8742,323.208 52.5,327C 60.2279,330.147 68.2279,331.48 76.5,331C 71.1465,330.501 66.4798,328.501 62.5,325C 67.2738,324.346 71.9404,324.846 76.5,326.5C 85.6547,324.86 94.8214,324.527 104,325.5C 109.867,325.384 115.7,324.884 121.5,324C 124.934,321.565 128.6,319.565 132.5,318C 135.429,317.223 138.263,317.39 141,318.5C 143.755,316.99 144.921,314.657 144.5,311.5C 146.39,311.297 147.89,311.963 149,313.5C 149.483,312.552 149.649,311.552 149.5,310.5C 155.926,310.748 161.926,309.248 167.5,306C 171.858,297.217 171.358,288.717 166,280.5C 161.876,275.533 157.042,271.533 151.5,268.5C 141.94,263.02 131.94,258.187 121.5,254C 117.722,251.888 114.222,249.388 111,246.5C 108.431,243.123 107.264,239.29 107.5,235C 108.502,230.148 109.836,225.315 111.5,220.5C 110.825,217.822 110.158,215.156 109.5,212.5C 121.036,187.297 139.703,169.63 165.5,159.5 Z M 23.5,310.5 C 24.6896,312.355 26.0229,314.188 27.5,316C 25.7183,316.814 24.2183,317.981 23,319.5C 20.9774,317.987 21.1441,316.654 23.5,315.5C 22.8333,314.833 22.1667,314.167 21.5,313.5C 22.1925,312.482 22.8592,311.482 23.5,310.5 Z M 15.5,315.5 C 20.638,317.001 20.638,318.001 15.5,318.5C 15.5,317.5 15.5,316.5 15.5,315.5 Z M 28.5,327.5 C 23.9317,328.898 23.5984,328.398 27.5,326C 26.2888,325.107 26.2888,324.274 27.5,323.5C 28.4287,324.689 28.762,326.022 28.5,327.5 Z M 37.5,334.5 C 40.006,336.688 40.6727,339.355 39.5,342.5C 37.9462,340.067 37.2796,337.4 37.5,334.5 Z M 54.5,353.5 C 57.0009,353.511 57.1676,354.178 55,355.5C 54.5357,354.906 54.369,354.239 54.5,353.5 Z M 65.5,357.5 C 70.9301,359.215 71.2635,360.882 66.5,362.5C 65.5481,360.955 65.2148,359.288 65.5,357.5 Z"/></g>
<g><path style="opacity:1" fill="#565656" d="M 206.5,154.5 C 207.117,154.611 207.617,154.944 208,155.5C 208.667,158.833 208.667,162.167 208,165.5C 207.617,166.056 207.117,166.389 206.5,166.5C 207.833,162.5 207.833,158.5 206.5,154.5 Z"/></g>
</svg>
