<svg xmlns="http://www.w3.org/2000/svg" viewBox="0 0 48 48"><path fill="#EA4335" d="M24 9.5c3.54 0 6.71 1.22 9.21 3.6l6.62-6.62C34.11 4.13 29.3 2 24 2 14.62 2 6.5 7.33 3.44 15.15l7.93 6.16C12.43 14.64 17.7 9.5 24 9.5z"/><path fill="#4285F4" d="M46.98 24c0-1.57-.15-3.09-.4-4.56H24v9.12h12.66c-.72 4.02-3.18 7.3-6.76 9.57l7.93 6.16C43.5 40.67 46.98 32.6 46.98 24z"/><path fill="#FBBC04" d="M10.37 33.17c-.91-2.61-.91-5.39 0-8L3.44 15.15C.33 23.01.33 32.99 3.44 40.85l7.93-6.16z"/><path fill="#34A853" d="M24 45.5c6.27 0 11.53-2.08 15.39-5.62l-7.93-6.16c-2.92 1.95-6.76 3.1-10.46 3.1-6.3 0-11.57-5.14-14.03-12.07L3.44 40.85C6.5 48.67 14.62 45.5 24 45.5z"/></svg>